PathFileType	4	(X/Y/Z)	C:/Users/beibeiliu/ov580/test_trc/User1\sequence.33_training_dense_left.trc
DataRate	CameraRate	NumFrames	NumMarkers	Units	OrigDataRate	OrigDataStartFrame	OrigNumFrames
120	120	18	19	mm	120	163	260
Frame#	Time	ThumbCMC			ThumbMCP			ThumbIP			ThumbTip			IndexMCP			IndexPIP			IndexTip			MiddleMCP			MiddlePIP			MiddleTip			RingMCP			RingPIP			RingTip			PinkyMCP			PinkyPIP			PinkyTip			BackHand1			BackHand2			BackHand3	
		X0	Y0	Z0	X1	Y1	Z1	X2	Y2	Z2	X3	Y3	Z3	X4	Y4	Z4	X5	Y5	Z5	X6	Y6	Z6	X7	Y7	Z7	X8	Y8	Z8	X9	Y9	Z9	X10	Y10	Z10	X11	Y11	Z11	X12	Y12	Z12	X13	Y13	Z13	X14	Y14	Z14	X15	Y15	Z15	X16	Y16	Z16	X17	Y17	Z17	X18	Y18	Z18	
162	1.35	-146.132	55.0504	52.1607	-124.048	62.3115	21.837	-114.481	70.3741	-0.449192	-106.474	74.2412	-22.4051	-177.397	61.4286	-24.7037	-157.556	57.0484	-53.9489	-127.706	51.5656	-62.5418	-184.408	31.7238	-35.3834	-159.925	36.2559	-61.9861	-125.037	34.4099	-63.0529	-185.824	9.43654	-32.2567	-172.415	9.35467	-58.9995	-145.857	10.7989	-72.212	-180.262	-19.6023	-12.2898	-181.251	-25.8036	-34.7965	-181.334	-24.9272	-64.261	-186.875	2.93391	31.7888	-182.553	-1.85917	62.5943	-183.164	37.4787	52.7667	
163	1.35833	-139.979	58.6069	54.3057	-119.781	61.3027	27.3319	-111.025	73.0784	-1.47855	-100.223	76.8766	-19.3655	-173.204	71.1559	-20.14	-156.46	68.0998	-49.1853	-130.312	59.8503	-59.3261	-184.167	46.7451	-31.0161	-164.151	44.9958	-57.0191	-128.302	42.5596	-61.6474	-189.727	20.8853	-26.3904	-178.453	25.2884	-56.2885	-148.978	26.0426	-71.0207	-184.699	-6.18852	-12.0028	-188.443	-10.3837	-35.2158	-189.251	-11.0158	-59.2628	-190.471	11.193	34.4882	-182.41	6.2625	66.7493	-178.482	43.33	57.0954	
164	1.36667	-135.174	56.7839	57.0023	-114.928	59.7541	29.2711	-108.451	70.3595	2.96243	-95.3616	79.0479	-16.193	-166.727	83.6294	-15.1639	-151.657	82.152	-42.2724	-128.123	68.7742	-53.9154	-181.396	62.2848	-23.4844	-160.18	59.8812	-53.1969	-125.369	48.0504	-59.3925	-190.914	36.9965	-24.3552	-179.899	38.6242	-55.1867	-153.334	38.9216	-67.22	-189.571	4.24594	-10.9466	-194.566	7.52693	-36.7935	-198.081	11.6065	-62.5249	-189.431	19.7772	35.4617	-184.295	6.95952	67.8156	-177.092	49.1802	57.9422	
165	1.375	-129.418	56.6742	60.7684	-112.591	58.5236	30.8744	-103.838	71.3726	5.00396	-93.7141	77.8737	-15.2467	-161.009	92.004	-4.20587	-146.132	87.9552	-36.5022	-123.842	73.9521	-50.1202	-176.958	72.3325	-19.9423	-154.127	72.741	-48.8343	-122.416	60.6985	-55.7552	-188.822	54.5792	-19.9969	-176.773	58.1992	-51.8825	-152.431	53.4353	-64.6009	-194.021	21.2829	-11.6454	-200.487	19.1089	-32.0416	-202.817	29.1034	-55.9297	-192.133	27.9525	37.9665	-186.241	16.0705	66.7112	-175.106	50.3062	62.2612	
166	1.38333	-124.272	54.9027	64.5805	-106.168	58.242	33.9979	-97.0465	72.8259	9.77902	-93.3019	77.0685	-12.2412	-154.433	97.9828	4.00106	-140.121	97.8281	-28.3621	-114.426	85.4691	-44.0514	-171.11	85.7919	-14.6882	-149.515	85.0129	-41.3815	-119.703	67.8618	-52.3412	-189.89	62.2644	-14.6958	-176.003	72.2703	-43.436	-152.857	63.1442	-60.3941	-196.732	30.6322	-9.72592	-201.717	39.3497	-30.4232	-208.587	46.1865	-51.9722	-191.124	34.3674	40.8564	-184.147	19.3309	69.4266	-167.69	56.822	66.4426	
167	1.39167	-121.583	50.5853	70.724	-105.496	58.2014	35.2768	-93.6808	69.6291	15.9312	-86.2374	78.1628	-8.63016	-147.979	105.923	7.81879	-134.124	104.576	-21.3425	-111.183	90.2093	-37.0223	-166.866	92.2594	-7.54296	-146.54	94.555	-33.3424	-117.405	74.3833	-48.1003	-183.773	74.1592	-6.26683	-172.444	84.2862	-38.8461	-146.946	75.4206	-56.0802	-194.073	43.3362	-2.00684	-203.702	48.999	-23.6843	-210.462	61.4213	-45.6675	-189.589	42.8239	42.0298	-184.952	21.4966	69.2043	-165.269	58.8113	69.7421	
168	1.4	-122.733	50.257	70.0548	-102.506	53.6219	41.2124	-94.5849	69.0056	16.2539	-81.2341	77.4342	-3.95498	-140.817	109.724	16.9575	-126.906	110.092	-13.8486	-106.483	95.6777	-31.4045	-158.487	101.733	0.0810685	-139.727	103.272	-26.9234	-109.179	81.9301	-42.2465	-179.197	86.0676	-5.9238	-164.128	96.813	-31.3096	-142.666	87.4493	-47.1098	-192.649	51.7476	0.780551	-201.728	65.0459	-19.9993	-204.391	78.6613	-37.9836	-185.779	47.1644	45.4243	-186.64	24.5956	67.7727	-164.271	59.6602	76.357	
169	1.40833	-116.778	46.0045	76.0123	-103.198	54.5719	40.6331	-92.785	69.0666	18.956	-81.0028	74.9784	0.189517	-132.83	113.124	24.424	-117.179	117.361	-3.54293	-99.1319	102.748	-22.0526	-154.4	105.931	6.5802	-128.774	110.818	-19.5233	-105.925	91.0815	-34.9732	-174.526	91.7591	4.15308	-162.085	103.716	-27.1045	-134.385	92.3693	-45.4311	-188.667	63.5143	4.83883	-198.974	72.0875	-15.8769	-201.28	89.0792	-34.7453	-181.569	53.1389	48.4829	-185.886	30.119	72.6707	-162.702	60.6479	77.7444	
170	1.41667	-115.76	48.7842	76.5003	-94.6542	52.6426	45.7237	-86.189	65.4527	25.5279	-77.4188	76.5612	0.169909	-124.857	116.274	28.1101	-111.25	119.937	3.09303	-92.4259	104.906	-18.1067	-146.373	112.899	10.9857	-121.122	117.124	-13.4293	-103.076	93.6944	-31.5077	-169.15	101.37	4.36131	-151.283	112.56	-21.5167	-130.717	101.391	-36.4605	-187.338	67.0601	8.10758	-192.721	82.4106	-8.07639	-193.282	102.085	-31.7698	-180.601	56.6126	48.4295	-186.794	33.7256	71.4817	-159.686	61.909	81.3912	
171	1.425	-113.824	46.8507	81.0185	-96.5047	52.8281	47.6725	-86.9453	68.8814	25.6498	-77.1377	75.7096	7.00393	-117.692	118.763	34.4369	-106.119	121.584	8.69649	-86.5261	107.929	-13.5787	-139.915	116.968	18.329	-119.192	121.541	-5.23131	-94.5189	99.008	-26.3386	-162.214	105.609	13.7381	-149.624	118.472	-12.442	-123.017	106.348	-33.1279	-182.258	72.6453	12.4967	-189.722	91.2066	-5.05351	-188.322	108.626	-22.8857	-177.405	64.6446	49.6935	-184.583	36.7511	76.0443	-152.799	63.8047	86.1558	
172	1.43333	-112.136	46.0038	81.9876	-90.3849	51.9785	50.3992	-83.3272	69.8945	28.6631	-70.27	76.9396	7.54871	-114.127	118.144	43.2983	-100.824	125.495	14.3046	-81.4248	113.684	-5.76312	-136.332	118.024	24.0508	-112.127	125.378	-0.7208	-89.4915	100.877	-22.7088	-156.284	112.74	17.0991	-140.999	124.008	-9.61056	-121.439	110.983	-28.844	-180.611	77.3947	14.12	-185.643	98.0511	-3.17562	-184.786	118.422	-23.5826	-170.926	69.392	56.0209	-182.721	42.485	75.2442	-153.981	63.7709	86.4094	
173	1.44167	-112.948	46.552	81.0395	-93.888	54.7827	48.2441	-78.616	70.8894	28.2791	-71.9831	79.0202	8.80186	-111.134	118.638	44.8139	-92.9653	127.19	15.2982	-80.7569	113.147	-6.72281	-131.113	121.382	27.8538	-106.877	127.814	0.521834	-84.8065	103.725	-18.7364	-152.566	112.467	22.3792	-140.688	127.411	-6.11417	-113.807	117.254	-23.4003	-176.689	85.5351	17.907	-180.629	104.112	0.765719	-180.496	123.742	-18.9146	-168.9	71.0669	61.2548	-177.763	46.8398	76.0165	-146.668	69.0303	90.2265	
174	1.45	-110.691	46.6669	80.1044	-93.4538	56.4321	48.6447	-77.0233	71.964	28.7854	-74.081	82.6179	9.05633	-104.783	119.997	49.7943	-91.8214	127.34	17.3255	-74.3734	113.772	-5.8	-126.798	124.614	30.295	-103.926	129.3	1.3963	-86.7322	108.395	-17.4289	-151.453	117.232	21.2988	-131.167	131.3	-1.81012	-111.702	118.51	-22.2497	-174.788	89.2388	19.1471	-177.02	108.745	5.53745	-175.417	128.433	-14.6077	-169.271	75.7674	58.8806	-178.523	48.87	77.2931	-145.108	68.1876	90.8924	
175	1.45833	-110.073	43.4151	80.8794	-88.0346	55.4431	48.1395	-79.4585	71.4926	27.8608	-68.4543	81.6757	6.09244	-104.901	120.648	47.0817	-88.3555	130.934	23.859	-71.1975	117.337	-2.22811	-124.209	127.358	30.9403	-104.867	133.098	4.78793	-82.6543	107.246	-17.3135	-147.219	119.28	23.8409	-127.677	133.448	-0.332949	-110.037	122.264	-19.5928	-174.335	93.074	19.1998	-175.848	111.166	5.44028	-172.388	133.346	-12.4788	-165.676	72.7463	61.6013	-174.77	50.2638	78.0067	-143.546	67.2909	90.9578	
176	1.46667	-107.918	47.3192	76.8799	-87.6796	55.3431	45.2989	-78.0967	70.4226	25.2577	-69.9985	81.7212	3.72667	-103.715	121.29	46.71	-87.6168	129.637	17.3288	-72.3409	117.782	-3.14892	-122.232	127.878	29.9265	-101.105	133.263	5.928	-79.3162	107.919	-17.9222	-146.46	120.029	22.1171	-130.554	134.253	-3.17936	-105.485	120.166	-22.8303	-169.795	96.3742	19.9152	-176.309	114.587	0.580266	-171.127	134.195	-15.805	-166.603	75.2058	58.6217	-176.22	51.0634	75.3666	-141.963	71.0401	88.9556	
177	1.475	-105.699	45.5151	76.3786	-87.5286	54.1803	41.7405	-79.0008	68.0033	22.9191	-72.3638	82.5946	-0.930398	-100.322	123.906	43.8765	-87.9161	130.483	16.568	-69.3909	115.569	-7.10413	-123.177	125.034	28.8751	-99.887	130.385	-1.32789	-83.6978	106.204	-20.424	-143.805	121.275	21.5239	-130.536	133.168	-4.83537	-106.187	118.256	-26.1468	-172.388	90.3952	16.9028	-177.203	111.88	0.394045	-171.269	133.78	-19.674	-166.631	78.2064	54.813	-178.562	47.4514	72.2871	-145.271	68.5812	86.5341	
178	1.48333	-106.081	44.366	72.0534	-93.508	52.676	37.3251	-76.842	65.5801	15.6504	-70.1059	73.4832	-6.64086	-102.573	118.772	40.4212	-90.8677	128.122	10.2527	-70.2278	112.944	-13.9533	-120.401	125.69	22.237	-100.233	126.475	-6.52008	-84.1681	101.412	-25.587	-146.406	116.828	17.2047	-132.594	128.39	-14.099	-109.048	114.52	-30.3802	-175.044	90.7159	12.2645	-176.093	108.471	-0.142868	-170.717	130.959	-19.4206	-168.607	74.1358	50.2065	-175.955	50.3304	71.9816	-143.702	68.201	84.2322	
179	1.49167	-108.287	41.295	67.8325	-92.9118	44.1822	34.451	-81.7804	58.8358	9.46514	-74.6358	64.2074	-11.4854	-105.328	118.283	27.252	-91.8798	125.494	4.78749	-80.5188	109.375	-22.5465	-126.583	119.276	14.7513	-108.816	123.588	-14.1586	-91.6046	97.4868	-35.3384	-154.454	108.904	5.51643	-137.879	122.024	-20.1697	-115.625	106.154	-41.0145	-177.945	85.1734	6.53527	-179.459	105.246	-7.25211	-176.656	124.051	-25.0691	-170.632	68.3322	46.3185	-176.443	44.4353	68.4755	-146.635	64.9647	77.548	
